<svg xmlns="http://www.w3.org/2000/svg" viewBox="0 0 500 500"><title>icons-round-Zeichenfläche 13</title><g id="Ebene_4" data-name="Ebene 4"><polygon points="281.41 325.64 103.72 176.54 78.62 176.54 271.04 338 281.41 325.64"/><polygon points="439.55 137.54 418.49 137.54 259.36 327.18 271.72 337.55 439.55 137.54"/><polygon points="269.17 301.63 269.17 280.57 98.72 137.54 73.62 137.54 269.17 301.63"/><polygon points="281.41 325.64 103.72 176.54 78.62 176.54 271.04 338 281.41 325.64"/><polygon points="439.55 137.54 418.49 137.54 259.36 327.18 271.72 337.55 439.55 137.54"/><polygon points="269.17 301.63 269.17 280.57 98.72 137.54 73.62 137.54 269.17 301.63"/></g></svg>