<?xml version="1.0" encoding="utf-8"?>
<!-- Generator: Adobe Illustrator 23.0.1, SVG Export Plug-In . SVG Version: 6.00 Build 0)  -->
<svg version="1.1" id="Icon-Hintergrund" xmlns="http://www.w3.org/2000/svg" xmlns:xlink="http://www.w3.org/1999/xlink" x="0px"
	 y="0px" viewBox="0 0 265 225" style="enable-background:new 0 0 265 225;" xml:space="preserve">
<title>icons-round-Zeichenfläche 2</title>
<rect width="8" height="224"/>
<rect y="217" width="265" height="8"/>
<path d="M38.5,155h27c6.6,0,12,5.4,12,12v27.5c0,6.6-5.4,12-12,12h-27c-6.6,0-12-5.4-12-12V167C26.5,160.4,31.9,155,38.5,155z"/>
<path d="M102,123h27c6.6,0,12,5.4,12,12v60c0,6.6-5.4,12-12,12h-27c-6.6,0-12-5.4-12-12v-60C90,128.4,95.4,123,102,123z"/>
<path d="M164,75h27c6.6,0,12,5.4,12,12v108c0,6.6-5.4,12-12,12h-27c-6.6,0-12-5.4-12-12V87C152,80.4,157.4,75,164,75z"/>
<path d="M226,26h27c6.6,0,12,5.4,12,12v157c0,6.6-5.4,12-12,12h-27c-6.6,0-12-5.4-12-12V38C214,31.4,219.4,26,226,26z"/>
</svg>
