<?xml version="1.0" encoding="utf-8"?>
<!-- Generator: Adobe Illustrator 23.0.1, SVG Export Plug-In . SVG Version: 6.00 Build 0)  -->
<svg version="1.1" id="Icon-Hintergrund" xmlns="http://www.w3.org/2000/svg" xmlns:xlink="http://www.w3.org/1999/xlink" x="0px"
	 y="0px" viewBox="0 0 285 224" style="enable-background:new 0 0 285 224;" xml:space="preserve">
<style type="text/css">
	.st0{fill:#FFFFFF;}
</style>
<title>icons-round-Zeichenfläche 3</title>
<g id="Monitor">
	<path d="M265,0H20C9,0,0,9,0,20v184c0,11,9,20,20,20h245c11,0,20-9,20-20V20C285,9,276,0,265,0z M142.4,212c-5,0-9-4-9-9s4-9,9-9
		s9,4,9,9S147.4,212,142.4,212z"/>
	<rect x="11.5" y="14" class="st0" width="262" height="173"/>
</g>
<path d="M79.1,96l-23.4,8.6l23.4,8.5v8.8l-33.5-12.7V100l33.5-12.7V96z"/>
<path d="M107.7,127.8c-1.3-1.3-2-3.1-2-4.9c-0.1-1.8,0.7-3.6,2-4.9c2.8-2.5,6.9-2.5,9.7,0c1.3,1.3,2.1,3,2,4.9c0,1.8-0.7,3.6-2,4.9
	C114.7,130.4,110.4,130.4,107.7,127.8z"/>
<path d="M126.1,127.8c-1.3-1.3-2-3.1-2-4.9c-0.1-1.8,0.7-3.6,2-4.9c2.8-2.5,6.9-2.5,9.7,0c1.3,1.3,2.1,3,2,4.9c0,3.8-3,6.9-6.8,6.9
	C129.2,129.7,127.4,129,126.1,127.8L126.1,127.8z"/>
<path d="M144.5,127.8c-1.3-1.3-2-3.1-2-4.9c-0.1-1.8,0.7-3.6,2-4.9c2.8-2.5,6.9-2.5,9.7,0c1.3,1.3,2.1,3,2,4.9c0,1.8-0.7,3.6-2,4.9
	C151.5,130.4,147.2,130.4,144.5,127.8z"/>
<path d="M199.4,69.9h9.8L186,136.1h-9.8L199.4,69.9z"/>
<path d="M243.9,100v9.1l-33.5,12.7V113l23.4-8.5l-23.4-8.6v-8.7L243.9,100z"/>
</svg>
