<svg xmlns="http://www.w3.org/2000/svg" viewBox="0 0 500 500"><defs><style>.cls-1{fill:none;stroke:#000;stroke-miterlimit:10;stroke-width:10px;}</style></defs><title>icons-round-Zeichenfläche 11</title><g id="Ebene_4" data-name="Ebene 4"><circle class="cls-1" cx="253.5" cy="249.5" r="215.5"/><path d="M236.07,219.48l-13.85,7.13-7.92,4.08c-9.62,4.94-20.74,3.82-28.39-1.95,0-.24-.11-.49-.15-.74-.31-1.68-.62-3.33-.89-4.94a179.83,179.83,0,0,1,4.88-54.34c1.31-5.11,2.32-8,2.32-8l10.87-5.6C216,148.42,231.79,152.86,238,165l10.4,20.22C254.68,197.36,249.12,212.78,236.07,219.48Z"/><path d="M308.91,358.73l-10.44,5.37c-23.81-10.51-42.7-22.76-57.64-36v0a25.82,25.82,0,0,1,14.09-23l20.89-10.75c12.53-6.45,27.89-1.8,34.14,10.34l10.4,20.22C326.59,337.07,321.44,352.28,308.91,358.73Z"/><path d="M296.9,364.92l-8,4.11a242.13,242.13,0,0,1-50.41-39.72,199.19,199.19,0,0,1-52.58-100.57c0-.24-.11-.49-.15-.74-.31-1.68-.62-3.33-.89-4.94a179.83,179.83,0,0,1,4.88-54.34l28.39,18.13a188.47,188.47,0,0,0,4.08,39.76,160.45,160.45,0,0,0,38.6,75.47c15.49,16.9,29.24,24.51,29.24,24.51l6.55,36.65Z"/></g></svg>