<?xml version="1.0" encoding="utf-8"?>
<!-- Generator: Adobe Illustrator 23.0.1, SVG Export Plug-In . SVG Version: 6.00 Build 0)  -->
<svg version="1.1" id="Icon-Hintergrund" xmlns="http://www.w3.org/2000/svg" xmlns:xlink="http://www.w3.org/1999/xlink" x="0px"
	 y="0px" viewBox="0 0 500 500" style="enable-background:new 0 0 500 500;" xml:space="preserve">
<style type="text/css">
	.st0{fill:none;stroke:#000000;stroke-width:10;stroke-miterlimit:10;}
	.st1{fill:#FFFFFF;}
</style>
<title>icons-round-Zeichenfläche 3</title>
<g id="Ebene_7">
	<circle class="st0" cx="251.5" cy="250.5" r="215.5"/>
</g>
<g id="Monitor">
	<path d="M378.7,143h-245c-11,0-20,9-20,20v184c0,11,9,20,20,20h245c11,0,20-9,20-20V163C398.7,152,389.7,143,378.7,143z M256.1,355
		c-5,0-9-4-9-9s4-9,9-9c5,0,9,4,9,9S261.1,355,256.1,355z"/>
	<rect x="125.2" y="157" class="st1" width="262" height="173"/>
</g>
<path d="M192.8,239l-23.4,8.6l23.4,8.5v8.8l-33.5-12.7V243l33.5-12.7V239z"/>
<path d="M221.4,270.8c-1.3-1.3-2-3.1-2-4.9c-0.1-1.8,0.7-3.6,2-4.9c2.8-2.5,6.9-2.5,9.7,0c1.3,1.3,2.1,3,2,4.9c0,1.8-0.7,3.6-2,4.9
	C228.4,273.4,224.1,273.4,221.4,270.8z"/>
<path d="M239.8,270.8c-1.3-1.3-2-3.1-2-4.9c-0.1-1.8,0.7-3.6,2-4.9c2.8-2.5,6.9-2.5,9.7,0c1.3,1.3,2.1,3,2,4.9c0,3.8-3,6.9-6.8,6.9
	C242.9,272.7,241.1,272,239.8,270.8L239.8,270.8z"/>
<path d="M258.2,270.8c-1.3-1.3-2-3.1-2-4.9c-0.1-1.8,0.7-3.6,2-4.9c2.8-2.5,6.9-2.5,9.7,0c1.3,1.3,2.1,3,2,4.9c0,1.8-0.7,3.6-2,4.9
	C265.2,273.4,260.9,273.4,258.2,270.8z"/>
<path d="M313.1,212.9h9.8l-23.2,66.2h-9.8L313.1,212.9z"/>
<path d="M357.6,243v9.1l-33.5,12.7v-8.8l23.4-8.5l-23.4-8.6v-8.7L357.6,243z"/>
</svg>
