<?xml version="1.0" encoding="utf-8"?>
<!-- Generator: Adobe Illustrator 23.0.1, SVG Export Plug-In . SVG Version: 6.00 Build 0)  -->
<svg version="1.1" id="Ebene_1" xmlns="http://www.w3.org/2000/svg" xmlns:xlink="http://www.w3.org/1999/xlink" x="0px" y="0px"
	 viewBox="0 0 285 224" style="enable-background:new 0 0 285 224;" xml:space="preserve">
<style type="text/css">
	.st0{fill:#FFFFFF;}
</style>
<title>icons-round-Zeichenfläche 1</title>
<g>
	<g id="Monitor">
		<path d="M265,0H20C9,0,0,9,0,20v184c0,11,9,20,20,20h245c11.1,0,20-9,20-20V20C285,9,276,0,265,0z M142.5,212c-5,0-9-4-9-9
			s4-9,9-9s9,4,9,9S147.4,212,142.5,212z"/>
		<rect x="11" y="14" class="st0" width="262" height="173"/>
	</g>
	<g id="Stift">
		<path d="M120.8,170.7c0,0-37.3-6.2-32.8-16.4c0.3-0.6,0.6-1.3,1-1.9c0.5-0.1,1-0.3,1.4-0.5l9.3-4.4c0.3-0.2,0.6-0.3,0.9-0.6
			c2.2-0.1,4.4,0.1,6.6,0.5c0,0,4,12.4,7.4,16.4S120.8,170.7,120.8,170.7z"/>
		<path d="M102.6,143.9c-5.2,0.2-11.5,1.7-15.2,7.1c-3.8,0.8-7.7-1.1-9.4-4.6L29.2,44c-2-4.2-0.2-9.3,4-11.3L45.3,27
			c4.2-2,9.3-0.2,11.3,4l48.8,102.3C107.2,137,106,141.5,102.6,143.9z"/>
	</g>
	<g id="Fenster">
		<path d="M257.8,64v9h-115v-9c0-6.6,5.4-12,12-12h91C252.4,52,257.8,57.4,257.8,64z"/>
		<path d="M257.8,75v76c0,6.6-5.4,12-12,12h-91c-6.6,0-12-5.4-12-12V75H257.8z"/>
	</g>
</g>
</svg>
