<?xml version="1.0" encoding="utf-8"?>
<!-- Generator: Adobe Illustrator 23.0.1, SVG Export Plug-In . SVG Version: 6.00 Build 0)  -->
<svg version="1.1" id="Ebene_1" xmlns="http://www.w3.org/2000/svg" xmlns:xlink="http://www.w3.org/1999/xlink" x="0px" y="0px"
	 viewBox="0 0 140.7 110.91" style="enable-background:new 0 0 140.7 110.91;" xml:space="preserve">
<g>
	<path d="M4.44,0.3h50.63v36.4c0,14.65-1.26,26.18-3.78,34.59c-2.52,8.41-7.3,16-14.32,22.79c-7.03,6.78-15.95,12.1-26.76,15.95
		L0.3,88.94c10.21-3.36,17.48-8.05,21.8-14.05c4.32-6.01,6.6-13.99,6.85-23.96H4.44V0.3z M89.48,0.3h50.63v36.4
		c0,14.65-1.29,26.18-3.87,34.59c-2.58,8.41-7.39,16-14.41,22.79c-7.03,6.78-15.89,12.1-26.58,15.95l-9.91-21.08
		c10.09-3.36,17.33-8.05,21.71-14.05c4.38-6.01,6.64-13.99,6.76-23.96H89.48V0.3z"/>
</g>
</svg>
